<?xml version="1.0" encoding="UTF-8" standalone="no"?>
<svg
   width="512"
   height="512"
   viewBox="0 0 512 512"
   version="1.1"
   id="svg5"
   xmlns="http://www.w3.org/2000/svg"
   xmlns:svg="http://www.w3.org/2000/svg">
  <defs
     id="defs2" />
  <g
     id="layer2">
    <rect
       style="font-size:139.624px;line-height:1.25;fill:#f9f9f9;fill-opacity:1;stroke:none;stroke-width:3.40298;stroke-miterlimit:4;stroke-dasharray:none"
       id="rect75669"
       width="512"
       height="512"
       x="0"
       y="0"
       ry="33.606064" />
  </g>
  <g
     id="layer1">
    <g
       aria-label="iBook"
       id="text3267"
       style="font-size:139.624px;line-height:1.25;stroke-width:3.49059">
      <g
         id="g75645"
         transform="translate(-6.455017,40.612)">
        <g
           id="g51952"
           transform="translate(-8.9985403,-16.32296)">
          <path
             style="font-weight:bold"
             d="M 100.48646,324.61214 H 81.078724 v -72.32522 h 19.407736 z"
             id="path22052" />
          <path
             d="m 182.58532,271.55503 q 16.8945,6.00383 16.8945,23.59645 0,13.82278 -10.19255,21.64172 -10.05293,7.81894 -28.34367,7.81894 H 120.17339 V 222.40738 h 37.00036 q 16.33601,0 26.52856,7.5397 10.33218,7.40007 10.33218,20.9436 0,14.10202 -11.44917,20.66435 z M 140,240 v 24.15496 h 15.21902 q 8.23781,0 12.98503,-3.35098 4.88684,-3.4906 4.88684,-9.21518 0,-5.58496 -4.74722,-8.51707 Q 163.59646,240 155.21902,240 Z m 19.26811,67.01952 q 9.21519,0 14.10202,-3.35097 5.02647,-3.35098 5.02647,-9.49444 0,-6.14345 -5.02647,-9.63405 -4.88683,-3.4906 -14.24164,-3.4906 H 140 v 25.97006 z"
             style="font-weight:bold"
             id="path21908" />
          <path
             d="m 209.25329,288.44953 q 0,-11.30954 5.02646,-19.96623 5.16609,-8.65669 13.68315,-13.26428 8.51706,-4.74722 18.43037,-4.74722 9.77368,0 18.15112,4.74722 8.51706,4.60759 13.54352,13.26428 5.16609,8.65669 5.16609,19.96623 0,11.30954 -5.16609,19.96623 -5.02646,8.65669 -13.54352,13.26428 -8.37744,4.60759 -18.15112,4.60759 -9.91331,0 -18.43037,-4.60759 -8.51706,-4.60759 -13.68315,-13.26428 -5.02646,-8.65669 -5.02646,-19.96623 z m 20.10585,0 q 0,9.63406 4.74722,15.35864 4.88684,5.58496 12.14728,5.58496 7.26045,0 12.00767,-5.58496 4.74721,-5.72458 4.74721,-15.35864 0,-9.63406 -4.74721,-15.35864 -4.74722,-5.72458 -12.00767,-5.72458 -7.26044,0 -12.14728,5.72458 -4.74722,5.72458 -4.74722,15.35864 z"
             style="font-weight:bold"
             id="path21905" />
          <path
             d="m 293.16727,288.44953 q 0,-11.30954 5.02647,-19.96623 5.16608,-8.65669 13.68315,-13.26428 8.51706,-4.74722 18.43036,-4.74722 9.77368,0 18.15112,4.74722 8.51707,4.60759 13.54353,13.26428 5.16609,8.65669 5.16609,19.96623 0,11.30954 -5.16609,19.96623 -5.02646,8.65669 -13.54353,13.26428 -8.37744,4.60759 -18.15112,4.60759 -9.9133,0 -18.43036,-4.60759 -8.51707,-4.60759 -13.68315,-13.26428 -5.02647,-8.65669 -5.02647,-19.96623 z m 20.10586,0 q 0,9.63406 4.74721,15.35864 4.88684,5.58496 12.14729,5.58496 7.26045,0 12.00766,-5.58496 4.74722,-5.72458 4.74722,-15.35864 0,-9.63406 -4.74722,-15.35864 -4.74721,-5.72458 -12.00766,-5.72458 -7.26045,0 -12.14729,5.72458 -4.74721,5.72458 -4.74721,15.35864 z"
             style="font-weight:bold"
             id="path21902" />
          <path
             d="m 424.69304,281.18908 29.18141,43.42306 h -23.3172 l -18.98887,-28.76254 -10.89067,12.00767 v 16.75487 H 381.26998 V 218.35829 h 19.40773 v 65.90252 l 27.50593,-31.97389 h 22.47946 z"
             style="font-weight:bold"
             id="path21899" />
          <path
             id="path48619"
             style="fill:#800000;fill-opacity:1;stroke:none;stroke-width:0.516316px;stroke-linecap:butt;stroke-linejoin:miter;stroke-opacity:1"
             d="m 81.724869,222.4074 c -8.517639,-0.0159 -5.832759,11.28231 -5.832759,11.28231 0,0 3.333149,13.21274 14.605093,13.71768 v -18.07107 c -2.779807,-4.65299 -5.440619,-6.79469 -8.357869,-6.91984 -0.140901,-0.006 -0.279264,-0.009 -0.414465,-0.009 z m 17.546685,0 c -0.135201,2.5e-4 -0.273564,0.003 -0.414466,0.009 -2.917249,0.12515 -5.578061,2.26685 -8.357868,6.91984 v 18.07116 c 11.27194,-0.50494 14.60509,-13.71767 14.60509,-13.71767 0,0 2.68488,-11.29824 -5.832756,-11.28232 z" />
        </g>
        <g
           aria-label="GRASS"
           id="text55674"
           style="font-size:78.9918px;fill:#2e6a14;stroke-width:6.8932">
          <path
             d="M 94.771219,363.96661 V 352.4338 h 23.381571 v 24.01351 q -2.76471,4.66052 -8.92607,7.34624 -6.08237,2.60673 -13.428607,2.60673 -8.610106,0 -15.324409,-3.79161 -6.635311,-3.79161 -10.347926,-10.5849 -3.633623,-6.87229 -3.633623,-15.64038 0,-8.92607 3.791607,-15.71937 3.870598,-6.87228 10.505909,-10.5059 6.635311,-3.71262 14.850458,-3.71262 5.766401,0 10.426921,1.81681 4.7395,1.81681 7.82018,4.89749 3.15968,3.08068 4.42355,6.87229 l -11.21684,6.47733 q -1.65883,-3.71262 -4.66052,-5.7664 -2.922693,-2.05379 -7.030266,-2.05379 -4.186566,0 -7.583213,2.13278 -3.396647,2.13278 -5.371442,6.16136 -1.974795,3.94959 -1.974795,9.40002 0,8.29414 4.344549,13.11264 4.42354,4.73951 11.769778,4.73951 5.529429,0 8.452119,-2.9227 v -7.34623 z"
             style="font-weight:900;font-family:'HarmonyOS Sans SC';-inkscape-font-specification:'HarmonyOS Sans SC Heavy'"
             id="path77164" />
          <path
             d="m 177.00156,385.37338 -16.03534,-0.079 -12.79667,-19.51097 h -0.39496 -7.26724 v 19.58996 h -13.5076 v -57.82199 h 21.01182 q 7.18825,0 12.4807,2.36975 5.37144,2.36975 8.21515,6.7143 2.8437,4.34455 2.8437,10.03196 0,5.45044 -2.60673,9.637 -2.60673,4.18657 -7.50422,6.63531 z m -36.49421,-46.44717 v 15.56138 h 5.92438 q 4.50253,0 7.66221,-1.73782 3.23866,-1.81681 3.23866,-6.08237 0,-7.74119 -10.90087,-7.74119 z"
             style="font-weight:900;font-family:'HarmonyOS Sans SC';-inkscape-font-specification:'HarmonyOS Sans SC Heavy'"
             id="path77161" />
          <path
             d="m 212.23189,327.55139 23.46057,57.82199 h -14.21852 l -4.42355,-11.69078 h -21.88072 l -4.26556,11.69078 H 177.4755 l 22.82863,-57.82199 z m 0.55295,34.83538 -6.87229,-18.01013 -6.55632,18.01013 z"
             style="font-weight:900;font-family:'HarmonyOS Sans SC';-inkscape-font-specification:'HarmonyOS Sans SC Heavy'"
             id="path77158" />
          <path
             d="m 282.13954,368.39015 q 0,6.39833 -3.39665,10.42691 -3.31766,4.02859 -8.37313,5.8454 -5.05548,1.73782 -10.34793,1.73782 -7.97817,0 -14.61348,-3.63363 -6.63531,-3.71261 -8.84708,-10.66389 l 10.90087,-6.24035 q 1.73782,4.02858 5.05547,6.24035 3.39665,2.21177 7.97817,2.21177 3.39665,0 5.45044,-1.26387 2.13278,-1.34286 2.13278,-3.8706 0,-2.05378 -1.42186,-3.39664 -1.42185,-1.34286 -3.55463,-2.21177 -2.13278,-0.86891 -6.00337,-1.9748 -5.68741,-1.65883 -9.32104,-3.31765 -3.55463,-1.65883 -6.16136,-4.97649 -2.60673,-3.39664 -2.60673,-8.84708 0,-6.00338 3.08068,-10.03196 3.15968,-4.02858 8.13616,-6.00337 5.05547,-1.9748 10.82188,-1.9748 7.58321,0 13.27062,3.47564 5.68741,3.47564 7.34624,9.87397 l -11.05886,6.24036 q -1.26387,-3.55463 -3.94959,-5.52943 -2.60673,-1.97479 -6.39833,-1.97479 -3.23867,0 -5.29245,1.50084 -1.9748,1.50084 -1.9748,3.8706 0,1.81681 1.34286,3.08068 1.42186,1.26387 3.47564,2.05379 2.05379,0.78991 5.8454,1.97479 5.84539,1.73782 9.47901,3.47564 3.63362,1.65883 6.31934,5.05547 2.68573,3.39665 2.68573,8.84709 z"
             style="font-weight:900;font-family:'HarmonyOS Sans SC';-inkscape-font-specification:'HarmonyOS Sans SC Heavy'"
             id="path77155" />
          <path
             d="m 331.35136,368.39015 q 0,6.39833 -3.39665,10.42691 -3.31765,4.02859 -8.37313,5.8454 -5.05547,1.73782 -10.34793,1.73782 -7.97817,0 -14.61348,-3.63363 -6.63531,-3.71261 -8.84708,-10.66389 l 10.90087,-6.24035 q 1.73782,4.02858 5.05547,6.24035 3.39665,2.21177 7.97818,2.21177 3.39664,0 5.45043,-1.26387 2.13278,-1.34286 2.13278,-3.8706 0,-2.05378 -1.42185,-3.39664 -1.42186,-1.34286 -3.55463,-2.21177 -2.13278,-0.86891 -6.00338,-1.9748 -5.68741,-1.65883 -9.32103,-3.31765 -3.55463,-1.65883 -6.16136,-4.97649 -2.60673,-3.39664 -2.60673,-8.84708 0,-6.00338 3.08068,-10.03196 3.15967,-4.02858 8.13615,-6.00337 5.05548,-1.9748 10.82188,-1.9748 7.58321,0 13.27062,3.47564 5.68741,3.47564 7.34624,9.87397 l -11.05885,6.24036 q -1.26387,-3.55463 -3.94959,-5.52943 -2.60673,-1.97479 -6.39834,-1.97479 -3.23866,0 -5.29245,1.50084 -1.9748,1.50084 -1.9748,3.8706 0,1.81681 1.34287,3.08068 1.42185,1.26387 3.47563,2.05379 2.05379,0.78991 5.8454,1.97479 5.84539,1.73782 9.47901,3.47564 3.63363,1.65883 6.31935,5.05547 2.68572,3.39665 2.68572,8.84709 z"
             style="font-weight:900;font-family:'HarmonyOS Sans SC';-inkscape-font-specification:'HarmonyOS Sans SC Heavy'"
             id="path77152" />
        </g>
      </g>
    </g>
  </g>
</svg>
